# xmcd
#
# Track frame offsets:
#	150
#	15637
#	27236
#	40946
#	74384
#	105579
#	121466
#	144153
#	157827
#	184817
#	202974
#	228063
#
# Disc length: 3280 seconds
#
# Revision: 1
# Processed by: cddbd v1.5.2PL0 Copyright (c) Steve Scherf et al.
# Submitted via: audiograbber 1.83.01
#
DISCID=910cce0c
DTITLE=ERIC BURDON - Eric Burdon
DYEAR=1970
DGENRE=
TTITLE0=San Franciscan Nights
TTITLE1=True Love
TTITLE2=When I Was Young
TTITLE3=River Deep Mountain High
TTITLE4=To Love Somebody
TTITLE5=Anything
TTITLE6=Ring Of Fire
TTITLE7=Good Times
TTITLE8=Paint It Black
TTITLE9=See See Rider
TTITLE10=I'm An Animal
TTITLE11=Winds Of Change
EXTD=
EXTT0=
EXTT1=
EXTT2=
EXTT3=
EXTT4=
EXTT5=
EXTT6=
EXTT7=
EXTT8=
EXTT9=
EXTT10=
EXTT11=
PLAYORDER=
